PathFileType	4	(X/Y/Z)	TVC_58_BWA_03_walk_RCNL2025.trc
DataRate	CameraRate	NumFrames	NumMarkers	Units	OrigDataRate	OrigDataStartFrame	OrigNumFrames
100	100	7	27	mm	100	252	335
Frame#	Time	R_Shoulder			L_Shoulder			C7			J_Notch			R_Elbow			L_Elbow			R_Wrist			L_Wrist			R_Asis			L_Asis			R_Psis			L_Psis			Sacral			Thoracic			Sternum			R_Thigh_Lateral			R_Knee_Lateral			R_Shank_Lateral			R_Ankle_Lateral			R_Heel			R_Toe			L_Thigh_Lateral			L_Knee_Lateral			L_Shank_Lateral			L_Ankle_Lateral			L_Heel			L_Toe		
		X1	Y1	Z1	X2	Y2	Z2	X3	Y3	Z3	X4	Y4	Z4	X5	Y5	Z5	X6	Y6	Z6	X7	Y7	Z7	X8	Y8	Z8	X9	Y9	Z9	X10	Y10	Z10	X11	Y11	Z11	X12	Y12	Z12	X13	Y13	Z13	X14	Y14	Z14	X15	Y15	Z15	X16	Y16	Z16	X17	Y17	Z17	X18	Y18	Z18	X19	Y19	Z19	X20	Y20	Z20	X21	Y21	Z21	X22	Y22	Z22	X23	Y23	Z23	X24	Y24	Z24	X25	Y25	Z25	X26	Y26	Z26	X27	Y27	Z27
252	2.51000000	196.160995	1316.907837	305.796082	229.478104	1341.014282	-48.210297	156.117447	1400.447388	118.864220	299.054230	1299.214111	134.981628	105.759148	1004.356567	347.099701	184.014160	1022.275635	-130.558334	151.449818	761.752533	396.155090	293.605347	801.484863	-188.420624	320.430817	892.939819	260.799469	316.517914	885.035767	-51.528858	90.160042	926.309387	166.014923	86.218163	927.629822	56.813904	88.189102	926.969604	111.414413	102.261841	1096.212646	103.768227	397.161224	1061.785278	117.073334	320.204559	690.353516	351.842133	422.034729	485.557037	263.776825	441.687134	286.847961	318.372955	451.507599	74.885666	238.623444	397.727020	53.751167	187.393707	578.061401	71.280182	204.719193	210.718140	647.815247	-128.315826	190.111130	444.605469	-13.208126	121.805885	266.457642	-67.777580	17.258307	65.082169	21.354513	-33.320587	66.686302	66.932823	146.683228	43.375450	59.898251
253	2.52000000	205.151947	1315.612793	307.044525	238.146835	1339.733765	-47.068253	164.818192	1399.446045	120.141418	307.917725	1298.200439	136.149963	114.786682	1003.143555	348.171783	192.319305	1020.632996	-128.761276	159.086441	760.431702	397.346390	301.668854	799.868256	-186.890892	329.725708	892.238403	262.408447	325.973358	883.328918	-50.219284	99.416710	924.904785	166.860825	95.673836	925.704163	57.939747	97.545273	925.304474	112.400286	111.324577	1095.088013	104.994911	406.551819	1060.771973	118.091774	329.205536	689.753174	353.539703	430.995819	484.609406	265.297455	447.161469	284.739929	318.759796	454.734375	73.955482	238.452026	401.206268	53.966797	186.601776	581.137573	67.645813	205.479355	219.167542	646.018188	-126.851227	196.668015	443.177399	-11.515176	125.864510	266.015259	-66.674591	17.615837	65.929489	21.571312	-33.007900	68.183235	67.187813	146.910431	43.453087	59.882648
254	2.53000000	214.114441	1314.445312	308.309204	246.831528	1338.586426	-45.908085	173.505203	1398.545898	121.432976	316.770111	1297.316528	137.343155	124.074455	1002.007812	349.358368	200.561295	1019.149719	-126.933769	167.110664	759.198547	398.582382	309.622009	798.358551	-185.247597	339.028870	891.775513	264.107025	335.567566	881.753662	-48.756050	108.723572	923.607727	167.684204	105.265427	923.848206	58.965412	106.994499	923.727966	113.324808	120.404335	1094.061646	106.227867	415.933746	1059.980713	119.208832	338.439911	689.326843	355.218384	439.842957	483.657623	266.843414	452.684204	282.838318	319.046753	456.946655	73.006561	238.303253	403.564789	54.285110	185.947296	583.246216	63.852264	206.005341	227.912964	644.257446	-125.195114	203.798203	441.767395	-9.777660	130.310242	265.535492	-65.320290	18.057722	67.051125	21.829115	-32.576740	70.057854	67.513489	147.234756	43.537895	59.870090
255	2.54000000	223.040100	1313.429199	309.585938	255.530212	1337.598877	-44.730915	182.177216	1397.761719	122.735268	325.607056	1296.580566	138.558685	133.603851	1000.972595	350.650177	208.748749	1017.860474	-125.084084	175.527435	758.076019	399.861786	317.464218	796.983795	-183.499550	348.339294	891.566406	265.880676	345.282349	880.341553	-47.129757	118.073570	922.454590	168.502197	114.978653	922.105957	59.899910	116.526112	922.280273	114.201054	129.495346	1093.150024	107.465416	425.294922	1059.432373	120.420326	347.843079	689.074646	356.887848	448.516113	482.705658	268.419922	458.373871	281.200256	319.287506	458.424683	72.085732	238.192841	405.090149	54.691139	185.458557	584.679993	60.122768	206.294403	236.970932	642.576050	-123.358055	211.553131	440.392273	-8.038517	135.176758	265.061493	-63.767941	18.622652	68.508911	22.113861	-31.968792	72.388321	67.898849	147.663788	43.611580	59.863506
256	2.55000000	231.923294	1312.585083	310.870544	264.239136	1336.793579	-43.538242	190.833084	1397.105591	124.044861	334.424683	1296.007446	139.793243	143.354477	1000.059082	352.036652	216.890289	1016.794556	-123.219948	184.339790	757.085510	401.182785	325.195496	795.768341	-181.658485	357.655060	891.618530	267.714142	355.094757	879.123230	-45.337639	127.459251	921.478943	169.334763	124.794243	920.517761	60.759560	126.126747	920.998352	115.047161	138.591629	1092.367065	108.707039	434.624207	1059.140869	121.719032	357.338959	688.991638	358.559479	456.955566	481.758026	270.029663	464.256927	279.834198	319.534668	459.408661	71.235352	238.128204	406.035950	55.169613	185.143097	585.681458	56.652523	206.363052	246.349106	641.018005	-121.359764	219.982208	439.067688	-6.343573	140.476791	264.660126	-62.102573	19.360676	70.366882	22.405874	-31.110996	75.255051	68.326309	148.197464	43.651340	59.865772
257	2.56000000	240.761261	1311.929932	312.159119	272.952850	1336.187988	-42.331970	199.471848	1396.587646	125.358475	343.219574	1295.608765	141.042664	153.304688	999.285583	353.506592	224.994156	1015.974792	-121.348663	193.548813	756.246338	402.543137	332.816711	794.732361	-179.738861	366.973175	891.931091	269.591400	364.977509	878.126709	-43.384163	136.872833	920.709839	170.203857	134.688141	919.118591	61.567192	135.780487	919.914215	115.885525	147.686874	1091.724121	109.953293	443.911530	1059.112793	123.094841	366.844452	689.068298	360.245026	465.103821	480.819580	271.672455	470.265564	278.703796	319.835419	460.091003	70.488457	238.109665	406.611969	55.702751	184.990677	586.434937	53.593475	206.244125	256.044403	639.625793	-119.228912	229.130844	437.807465	-4.738972	146.203705	264.414246	-60.430401	20.333696	72.688713	22.681293	-29.915932	78.736809	68.773071	148.827194	43.631912	59.879581
258	2.57000000	249.554123	1311.476318	313.448029	281.664551	1335.794189	-41.114441	208.092728	1396.215210	126.673088	351.988892	1295.392212	142.302094	163.432190	998.666992	355.048492	233.067902	1015.416992	-119.477127	203.153595	755.574921	403.940231	340.329666	793.891266	-177.757439	376.289734	892.495422	271.496033	374.899597	877.375610	-41.281197	146.306213	920.171021	171.132446	144.631943	917.936768	62.350842	145.469078	919.053894	116.741644	156.774521	1091.229980	111.205681	453.148071	1059.347168	124.535034	376.274261	689.290344	361.954987	472.907104	479.895355	273.345093	476.249481	277.739990	320.228638	460.614044	69.865990	238.132172	406.979828	56.269844	184.977890	587.066284	51.045231	205.981857	266.042633	638.437439	-117.001984	239.038422	436.623352	-3.268385	152.337677	264.414368	-58.865345	21.615269	75.534760	22.914164	-28.283428	82.906181	69.213211	149.536499	43.528843	59.907166
